HIERARCHY
ROOT hip
{
  OFFSET 43.4033 84.2112 243.204
  CHANNELS 6 Xposition Yposition Zposition Zrotation Xrotation Yrotation
  JOINT abdomen
  {
    OFFSET 0 20.6881 -0.73152
    CHANNELS 3 Zrotation Xrotation Yrotation
    JOINT chest
    {
      OFFSET 0 11.7043 -0.48768
      CHANNELS 3 Zrotation Xrotation Yrotation
      JOINT neck
      {
        OFFSET 0 22.1894 -2.19456
        CHANNELS 3 Zrotation Xrotation Yrotation
        JOINT head
        {
          OFFSET -0.24384 7.07133 1.2192
          CHANNELS 3 Zrotation Xrotation Yrotation
          JOINT leftEye
          {
            OFFSET 4.14528 8.04674 8.04672
            CHANNELS 3 Zrotation Xrotation Yrotation
            End Site
            {
              OFFSET 1 0 0
            }
          }
          JOINT rightEye
          {
            OFFSET -3.6576 8.04674 8.04672
            CHANNELS 3 Zrotation Xrotation Yrotation
            End Site
            {
              OFFSET 1 0 0
            }
          }
        }
      }
      JOINT rCollar
      {
        OFFSET -2.68224 19.2634 -4.8768
        CHANNELS 3 Zrotation Xrotation Yrotation
        JOINT rShldr
        {
          OFFSET -8.77824 -1.95073 1.46304
          CHANNELS 3 Zrotation Xrotation Yrotation
          JOINT rForeArm
          {
            OFFSET -28.1742 -1.7115 0.48768
            CHANNELS 3 Zrotation Xrotation Yrotation
            JOINT rHand
            {
              OFFSET -22.5879 0.773209 7.07136
              CHANNELS 3 Zrotation Xrotation Yrotation
              JOINT rThumb1
              {
                OFFSET -1.2192 -0.487915 3.41376
                CHANNELS 3 Zrotation Xrotation Yrotation
                JOINT rThumb2
                {
                  OFFSET -3.37035 -0.52449 3.41376
                  CHANNELS 3 Zrotation Xrotation Yrotation
                  End Site
                  {
                    OFFSET -1.78271 -1.18214 1.43049
                  }
                }
              }
              JOINT rIndex1
              {
                OFFSET -7.75947 0.938293 5.60832
                CHANNELS 3 Zrotation Xrotation Yrotation
                JOINT rIndex2
                {
                  OFFSET -2.54057 -0.884171 1.56538
                  CHANNELS 3 Zrotation Xrotation Yrotation
                  End Site
                  {
                    OFFSET -1.62519 -0.234802 1.16502
                  }
                }
              }
              JOINT rMid1
              {
                OFFSET -8.24714 1.18213 3.41376
                CHANNELS 3 Zrotation Xrotation Yrotation
                JOINT rMid2
                {
                  OFFSET -3.10165 -0.590103 1.0647
                  CHANNELS 3 Zrotation Xrotation Yrotation
                  End Site
                  {
                    OFFSET -2.48547 -0.328903 0.83742
                  }
                }
              }
              JOINT rRing1
              {
                OFFSET -8.82822 0.546677 1.51678
                CHANNELS 3 Zrotation Xrotation Yrotation
                JOINT rRing2
                {
                  OFFSET -2.60934 -0.819778 -0.0198488
                  CHANNELS 3 Zrotation Xrotation Yrotation
                  End Site
                  {
                    OFFSET -2.33842 -0.294052 0.168128
                  }
                }
              }
              JOINT rPinky1
              {
                OFFSET -8.27202 -0.0477905 -0.4584
                CHANNELS 3 Zrotation Xrotation Yrotation
                JOINT rPinky2
                {
                  OFFSET -1.82734 -0.647385 -0.700984
                  CHANNELS 3 Zrotation Xrotation Yrotation
                  End Site
                  {
                    OFFSET -1.69225 -0.51767 -0.607171
                  }
                }
              }
            }
          }
        }
      }
      JOINT lCollar
      {
        OFFSET 2.68224 19.2634 -4.8768
        CHANNELS 3 Zrotation Xrotation Yrotation
        JOINT lShldr
        {
          OFFSET 8.77824 -1.95073 1.46304
          CHANNELS 3 Zrotation Xrotation Yrotation
          JOINT lForeArm
          {
            OFFSET 28.1742 -1.7115 0.48768
            CHANNELS 3 Zrotation Xrotation Yrotation
            JOINT lHand
            {
              OFFSET 22.5879 0.773209 7.07136
              CHANNELS 3 Zrotation Xrotation Yrotation
              JOINT lThumb1
              {
                OFFSET 1.2192 -0.487915 3.41376
                CHANNELS 3 Zrotation Xrotation Yrotation
                JOINT lThumb2
                {
                  OFFSET 3.37035 -0.52449 3.41376
                  CHANNELS 3 Zrotation Xrotation Yrotation
                  End Site
                  {
                    OFFSET 1.78271 -1.18214 1.43049
                  }
                }
              }
              JOINT lIndex1
              {
                OFFSET 7.75947 0.938293 5.60832
                CHANNELS 3 Zrotation Xrotation Yrotation
                JOINT lIndex2
                {
                  OFFSET 2.54057 -0.884171 1.56538
                  CHANNELS 3 Zrotation Xrotation Yrotation
                  End Site
                  {
                    OFFSET 1.62519 -0.234802 1.16502
                  }
                }
              }
              JOINT lMid1
              {
                OFFSET 8.24714 1.18213 3.41376
                CHANNELS 3 Zrotation Xrotation Yrotation
                JOINT lMid2
                {
                  OFFSET 3.10165 -0.590103 1.0647
                  CHANNELS 3 Zrotation Xrotation Yrotation
                  End Site
                  {
                    OFFSET 2.48547 -0.328903 0.83742
                  }
                }
              }
              JOINT lRing1
              {
                OFFSET 8.82822 0.546677 1.51678
                CHANNELS 3 Zrotation Xrotation Yrotation
                JOINT lRing2
                {
                  OFFSET 2.60934 -0.819778 -0.0198488
                  CHANNELS 3 Zrotation Xrotation Yrotation
                  End Site
                  {
                    OFFSET 2.33842 -0.294052 0.168128
                  }
                }
              }
              JOINT lPinky1
              {
                OFFSET 8.27202 -0.0477905 -0.4584
                CHANNELS 3 Zrotation Xrotation Yrotation
                JOINT lPinky2
                {
                  OFFSET 1.82734 -0.647385 -0.700984
                  CHANNELS 3 Zrotation Xrotation Yrotation
                  End Site
                  {
                    OFFSET 1.69225 -0.51767 -0.607171
                  }
                }
              }
            }
          }
        }
      }
    }
  }
  JOINT rButtock
  {
    OFFSET -8.77824 4.35084 1.2192
    CHANNELS 3 Zrotation Xrotation Yrotation
    JOINT rThigh
    {
      OFFSET 0 -1.70687 -2.19456
      CHANNELS 3 Zrotation Xrotation Yrotation
      JOINT rShin
      {
        OFFSET 0 -36.8199 0.73152
        CHANNELS 3 Zrotation Xrotation Yrotation
        JOINT rFoot
        {
          OFFSET 0.73152 -45.1104 -5.12064
          CHANNELS 3 Zrotation Xrotation Yrotation
          End Site
          {
            OFFSET -1.1221 -3.69964 12.103
          }
        }
      }
    }
  }
  JOINT lButtock
  {
    OFFSET 8.77824 4.35084 1.2192
    CHANNELS 3 Zrotation Xrotation Yrotation
    JOINT lThigh
    {
      OFFSET 0 -1.70687 -2.19456
      CHANNELS 3 Zrotation Xrotation Yrotation
      JOINT lShin
      {
        OFFSET 0 -36.8199 0.73152
        CHANNELS 3 Zrotation Xrotation Yrotation
        JOINT lFoot
        {
          OFFSET -0.73152 -45.1104 -5.12064
          CHANNELS 3 Zrotation Xrotation Yrotation
          End Site
          {
            OFFSET 1.1221 -3.69964 12.103
          }
        }
      }
    }
  }
}
MOTION
Frames:	4
Frame Time:	0.00833333
48.1869 85.5269 256.944 -1.77869 0.00595645 0.0336575 2.34101 -0.00222417 0.0637214 0.646596 0.00594986 0.111938 1.26734e-014 7.95139e-016 5.71506e-016 3.81014e-014 9.54166e-015 1.7844e-015 -0 0 0 -0 0 0 6.50892e-015 -2.9313e-017 4.47265e-016 1.35985e-013 -2.91965e-016 7.55382e-015 2.3151e-012 -7.17016e-013 9.22361e-014 2.65147e-011 5.8388e-013 1.27222e-012 6.25385e-011 -2.96322e-013 2.95792e-012 1.07989e-010 -5.21611e-013 5.10002e-012 6.2544e-011 -2.95792e-013 2.94519e-012 7.73091 5.47488 0.417314 6.25382e-011 -2.95692e-013 2.94837e-012 2.90554 0.965183 0.102902 6.25493e-011 -2.96388e-013 2.95474e-012 10.2786 0.731801 0.0259123 6.25345e-011 -2.95394e-013 2.9611e-012 2.22167 -0.733487 -0.20892 6.31311e-015 -2.79541e-017 1.49089e-016 1.32454e-013 -2.85753e-016 5.96354e-015 2.31589e-012 6.7547e-013 1.11319e-013 2.65136e-011 -8.14321e-013 1.26268e-012 6.25373e-011 -3.08528e-013 2.9611e-012 1.08004e-010 -5.34333e-013 5.10559e-012 6.25333e-011 -3.07719e-013 2.9611e-012 -7.73091 5.47488 -0.417314 6.25381e-011 -3.08713e-013 2.95155e-012 -2.90554 0.965183 -0.102902 6.25345e-011 -3.08315e-013 2.95553e-012 -10.2786 0.731801 -0.0259123 6.25442e-011 -3.04936e-013 2.95155e-012 -2.22167 -0.733487 0.20892 -2.03217e-016 0 -3.88251e-019 2.21552 -8.02973 -0.231362 0.00607152 8.97368 0.15207 -0.477721 -0.951454 0.0348674 2.03217e-016 0 3.88251e-019 1.3521 -1.92788 -0.0053585 0.00846632 -2.07867 0.0694578 0.423829 3.99897 -0.127285 
49.2663 84.1469 245.253 -1.9432 0.175882 -48.6374 2.6381 0.685035 0.930471 0.393862 -1.93355 0.381745 -1.43603 3.50624 -0.549343 2.4903 -5.83693 -0.641095 -0 0 0 -0 0 0 6.09702e-015 -7.94186e-015 -1.5202e-014 22.4332 12.2059 -1.7613 -5.08048 -2.51027 7.70392 0.0385476 4.35777 0.606065 8.17493e-011 1.78975e-011 -3.32692e-011 1.41089e-010 3.16868e-011 -5.8118e-011 8.17526e-011 1.78995e-011 -3.32775e-011 7.73091 5.47488 0.417314 8.17475e-011 1.79006e-011 -3.3276e-011 2.90554 0.965183 0.102902 8.17571e-011 1.79003e-011 -3.32684e-011 10.2786 0.731801 0.0259123 8.1745e-011 1.79013e-011 -3.32603e-011 2.22167 -0.733487 -0.20892 5.92363e-015 -7.94078e-015 -1.54299e-014 -21.9242 7.96387 2.75172 5.23972 -2.62662 -7.89939 -0.0367046 4.25188 -0.591634 2.77289e-013 -5.7538e-011 -3.51828e-011 -3.27113e-013 -9.95956e-011 -6.00575e-011 2.71479e-013 -5.75382e-011 -3.51792e-011 -7.73091 5.47488 -0.417314 2.7847e-013 -5.75408e-011 -3.51914e-011 -2.90554 0.965183 -0.102902 2.7196e-013 -5.75397e-011 -3.51862e-011 -10.2786 0.731801 -0.0259123 2.82064e-013 -5.75367e-011 -3.51896e-011 -2.22167 -0.733487 0.20892 -2.03217e-016 0 -3.88251e-019 4.4141 -9.61104 4.37025 0.033678 15.1882 0.291435 -1.96227 -7.06624 -7.86164 2.03217e-016 0 3.88251e-019 -0.610596 -4.61497 -5.73956 -0.0518188 5.96515 -0.161099 1.49883 -3.02819 6.83759 
49.2189 84.1438 245.177 -1.99629 -0.095029 -100.084 2.93329 1.40798 1.84685 0.142178 -3.97936 0.667746 -2.88407 7.21178 -1.13559 4.99005 -12.0029 -1.33672 -0 0 0 -0 0 0 7.18327e-015 -1.67609e-014 -3.08147e-014 47.0395 25.085 -3.89889 -9.71809 -5.00774 15.8861 -0.0220406 8.95654 1.25763 9.13744e-011 5.68965e-011 -8.19703e-011 1.57502e-010 9.97766e-011 -1.42772e-010 9.13754e-011 5.69001e-011 -8.1974e-011 7.73091 5.47488 0.417314 9.13711e-011 5.69023e-011 -8.1974e-011 2.90554 0.965183 0.102902 9.13791e-011 5.69025e-011 -8.1965e-011 10.2786 0.731801 0.0259123 9.13699e-011 5.69034e-011 -8.19549e-011 2.22167 -0.733487 -0.20892 7.03029e-015 -1.67602e-014 -3.09669e-014 -45.954 16.3118 5.82805 9.99917 -5.23697 -16.303 0.0209858 8.74444 -1.2279 -7.83808e-011 -1.38676e-010 -8.70536e-011 -1.37172e-010 -2.39993e-010 -1.48728e-010 -7.83886e-011 -1.38677e-010 -8.70462e-011 -7.73091 5.47488 -0.417314 -7.83792e-011 -1.38681e-010 -8.70611e-011 -2.90554 0.965183 -0.102902 -7.83889e-011 -1.3868e-010 -8.70547e-011 -10.2786 0.731801 -0.0259123 -7.83783e-011 -1.38677e-010 -8.70575e-011 -2.22167 -0.733487 0.20892 -2.03217e-016 0 -3.88251e-019 7.02386 -11.1967 9.28969 0.0273289 21.7543 0.451846 -5.38223 -13.1239 -16.5251 2.03217e-016 0 3.88251e-019 -3.26459 -7.34902 -11.8631 -0.043356 14.4691 -0.41628 4.49978 -10.1769 14.4177 
49.2126 84.1212 245.19 -2.4314 -0.651912 -145.976 3.1699 2.0576 2.66549 -0.0565479 -5.81193 0.925463 -4.10349 10.5148 -1.67305 7.06292 -17.5018 -2.00622 -0 0 0 -0 0 0 5.27322e-015 -2.37669e-014 -4.65005e-014 70.0116 36.4617 -6.42616 -13.2648 -6.9874 23.2724 -0.167138 13.0674 1.86115 1.20171e-010 5.42852e-011 -1.05723e-010 2.0729e-010 9.61037e-011 -1.84554e-010 1.2017e-010 5.42901e-011 -1.05723e-010 7.73091 5.47488 0.417314 1.20166e-010 5.42932e-011 -1.05725e-010 2.90554 0.965183 0.102902 1.20173e-010 5.42938e-011 -1.05715e-010 10.2786 0.731801 0.0259123 1.20166e-010 5.42947e-011 -1.05703e-010 2.22167 -0.733487 -0.20892 5.14468e-015 -2.37664e-014 -4.65878e-014 -68.237 23.6608 8.9317 13.6006 -7.28202 -23.8775 0.158937 12.7501 -1.81478 -1.24243e-010 -1.71997e-010 -1.1147e-010 -2.1699e-010 -2.97718e-010 -1.90384e-010 -1.24252e-010 -1.71999e-010 -1.1146e-010 -7.73091 5.47488 -0.417314 -1.24241e-010 -1.72005e-010 -1.11477e-010 -2.90554 0.965183 -0.102902 -1.24253e-010 -1.72003e-010 -1.1147e-010 -10.2786 0.731801 -0.0259123 -1.24242e-010 -1.72e-010 -1.11472e-010 -2.22167 -0.733487 0.20892 -2.03217e-016 0 -3.88251e-019 9.57767 -12.5011 13.7159 -0.0137515 27.6165 0.613214 -10.0377 -17.8245 -24.7351 2.03217e-016 0 3.88251e-019 -6.14079 -9.60691 -17.4037 0.0333776 22.0515 -0.6684 8.81293 -16.0055 21.6154 
